<svg width="51" height="60" viewBox="0 0 51 60" fill="none" xmlns="http://www.w3.org/2000/svg">
<g filter="url(#filter0_ddd_3_2687)">
<path d="M10.5 6.33334C10.5 5.59696 11.084 5 11.8043 5C11.8043 5 11.8043 5 11.8043 5C11.8043 5 26.4193 5 28.1087 5C29.53 5 30.4062 5.94376 30.6485 6.24327C30.6961 6.30203 30.7439 6.36044 30.7967 6.41436L39.1923 14.9966C39.1945 14.9989 39.1964 15.0008 39.1987 15.0031C39.2679 15.0738 40.5 16.3521 40.5 17.6667C40.5 19.0193 40.5 43.6667 40.5 43.6667C40.5 43.6667 40.5 43.6667 40.5 43.6667C40.5 44.403 39.916 45 39.1956 45H11.8043C11.084 45 10.5 44.403 10.5 43.6667V6.33334Z" fill="white"/>
<path d="M39.1956 44.875H11.8043C11.1556 44.875 10.625 44.3366 10.625 43.6667V6.33334C10.625 5.66339 11.1556 5.125 11.8043 5.125V5C11.8043 5.125 11.8044 5.125 11.8045 5.125H11.805H11.8058H11.807H11.8085H11.8103H11.8125H11.8149H11.8177H11.8209H11.8243H11.8281H11.8322H11.8366H11.8413H11.8463H11.8517H11.8573H11.8633H11.8696H11.8762H11.8831H11.8903H11.8978H11.9057H11.9138H11.9222H11.931H11.94H11.9493H11.959H11.9689H11.9791H11.9896H12.0004H12.0115H12.0229H12.0346H12.0466H12.0588H12.0714H12.0842H12.0973H12.1107H12.1243H12.1383H12.1525H12.167H12.1818H12.1968H12.2122H12.2278H12.2436H12.2598H12.2762H12.2928H12.3098H12.327H12.3444H12.3621H12.3801H12.3984H12.4169H12.4356H12.4546H12.4739H12.4934H12.5132H12.5332H12.5535H12.574H12.5948H12.6158H12.6371H12.6586H12.6803H12.7023H12.7246H12.747H12.7697H12.7927H12.8158H12.8392H12.8629H12.8867H12.9109H12.9352H12.9597H12.9845H13.0095H13.0348H13.0602H13.0859H13.1118H13.1379H13.1642H13.1908H13.2175H13.2445H13.2717H13.2991H13.3267H13.3545H13.3826H13.4108H13.4392H13.4679H13.4967H13.5258H13.555H13.5845H13.6141H13.644H13.674H13.7042H13.7346H13.7653H13.7961H13.8271H13.8582H13.8896H13.9212H13.9529H13.9848H14.0169H14.0492H14.0817H14.1143H14.1472H14.1801H14.2133H14.2467H14.2802H14.3139H14.3477H14.3817H14.4159H14.4503H14.4848H14.5195H14.5543H14.5893H14.6245H14.6598H14.6953H14.731H14.7668H14.8027H14.8388H14.8751H14.9115H14.948H14.9847H15.0215H15.0585H15.0957H15.1329H15.1704H15.2079H15.2456H15.2834H15.3214H15.3595H15.3977H15.4361H15.4746H15.5132H15.552H15.5909H15.6299H15.669H15.7083H15.7477H15.7872H15.8268H15.8666H15.9064H15.9464H15.9865H16.0267H16.067H16.1075H16.148H16.1887H16.2294H16.2703H16.3113H16.3524H16.3935H16.4348H16.4762H16.5177H16.5593H16.601H16.6427H16.6846H16.7266H16.7686H16.8108H16.853H16.8953H16.9377H16.9802H17.0228H17.0655H17.1082H17.151H17.194H17.2369H17.28H17.3231H17.3663H17.4096H17.453H17.4964H17.5399H17.5835H17.6271H17.6708H17.7146H17.7584H17.8023H17.8463H17.8903H17.9344H17.9785H18.0227H18.0669H18.1112H18.1555H18.1999H18.2444H18.2889H18.3334H18.378H18.4227H18.4673H18.5121H18.5568H18.6016H18.6465H18.6914H18.7363H18.7812H18.8262H18.8713H18.9163H18.9614H19.0065H19.0516H19.0968H19.142H19.1872H19.2325H19.2777H19.323H19.3683H19.4136H19.459H19.5043H19.5497H19.5951H19.6404H19.6858H19.7313H19.7767H19.8221H19.8675H19.913H19.9584H20.0039H20.0493H20.0947H20.1402H20.1856H20.2311H20.2765H20.3219H20.3673H20.4127H20.4581H20.5035H20.5489H20.5942H20.6396H20.6849H20.7302H20.7755H20.8208H20.866H20.9113H20.9565H21.0016H21.0468H21.0919H21.137H21.1821H21.2271H21.2721H21.3171H21.362H21.4069H21.4518H21.4966H21.5414H21.5861H21.6308H21.6755H21.7201H21.7646H21.8092H21.8536H21.898H21.9424H21.9867H22.031H22.0752H22.1194H22.1635H22.2075H22.2515H22.2954H22.3392H22.383H22.4268H22.4704H22.514H22.5575H22.601H22.6444H22.6877H22.7309H22.7741H22.8172H22.8602H22.9032H22.946H22.9888H23.0315H23.0741H23.1166H23.1591H23.2014H23.2437H23.2859H23.328H23.37H23.4119H23.4537H23.4954H23.537H23.5786H23.62H23.6613H23.7025H23.7437H23.7847H23.8256H23.8664H23.9071H23.9477H23.9882H24.0285H24.0688H24.1089H24.149H24.1889H24.2287H24.2684H24.3079H24.3473H24.3867H24.4258H24.4649H24.5038H24.5427H24.5813H24.6199H24.6583H24.6966H24.7348H24.7728H24.8107H24.8484H24.886H24.9235H24.9608H24.998H25.0351H25.072H25.1087H25.1453H25.1818H25.2181H25.2543H25.2903H25.3261H25.3618H25.3974H25.4328H25.468H25.5031H25.538H25.5728H25.6073H25.6418H25.676H25.7101H25.744H25.7778H25.8114H25.8448H25.878H25.9111H25.944H25.9767H26.0092H26.0416H26.0738H26.1058H26.1376H26.1692H26.2007H26.2319H26.263H26.2939H26.3246H26.3551H26.3854H26.4155H26.4454H26.4752H26.5047H26.534H26.5631H26.5921H26.6208H26.6493H26.6776H26.7057H26.7336H26.7613H26.7888H26.8161H26.8432H26.87H26.8967H26.9231H26.9493H26.9753H27.001H27.0266H27.0519H27.077H27.1019H27.1265H27.1509H27.1751H27.1991H27.2228H27.2463H27.2696H27.2926H27.3154H27.338H27.3603H27.3824H27.4043H27.4259H27.4472H27.4683H27.4892H27.5098H27.5302H27.5503H27.5702H27.5898H27.6092H27.6283H27.6472H27.6658H27.6841H27.7022H27.7201H27.7376H27.7549H27.772H27.7888H27.8053H27.8215H27.8375H27.8532H27.8686H27.8838H27.8987H27.9133H27.9276H27.9417H27.9555H27.969H27.9822H27.9951H28.0078H28.0201H28.0322H28.044H28.0555H28.0667H28.0777H28.0883H28.0986H28.1087C29.4724 5.125 30.3165 6.03161 30.5514 6.32189C30.5987 6.38044 30.6499 6.44313 30.7073 6.50177L39.1029 15.084L39.1093 15.0905C39.1408 15.1227 39.4598 15.4532 39.7701 15.936C40.0822 16.4216 40.375 17.0451 40.375 17.6667V17.6749V17.6836V17.6928V17.7026V17.7129V17.7237V17.7351V17.747V17.7593V17.7722V17.7856V17.7995V17.814V17.8289V17.8443V17.8603V17.8767V17.8936V17.911V17.929V17.9474V17.9663V17.9856V18.0055V18.0258V18.0467V18.068V18.0897V18.112V18.1347V18.1579V18.1816V18.2057V18.2303V18.2553V18.2808V18.3068V18.3332V18.36V18.3874V18.4151V18.4433V18.472V18.5011V18.5306V18.5606V18.591V18.6218V18.6531V18.6848V18.7169V18.7494V18.7824V18.8158V18.8496V18.8838V18.9184V18.9534V18.9889V19.0248V19.061V19.0977V19.1347V19.1722V19.2101V19.2483V19.287V19.326V19.3654V19.4052V19.4454V19.486V19.5269V19.5682V19.6099V19.652V19.6944V19.7373V19.7804V19.824V19.8679V19.9121V19.9568V20.0017V20.0471V20.0927V20.1388V20.1851V20.2319V20.2789V20.3263V20.3741V20.4221V20.4705V20.5193V20.5684V20.6178V20.6675V20.7175V20.7679V20.8186V20.8696V20.9209V20.9725V21.0245V21.0767V21.1293V21.1821V21.2353V21.2887V21.3425V21.3966V21.4509V21.5055V21.5605V21.6157V21.6712V21.7269V21.783V21.8393V21.896V21.9528V22.01V22.0674V22.1251V22.1831V22.2413V22.2998V22.3585V22.4175V22.4768V22.5363V22.5961V22.6561V22.7163V22.7768V22.8376V22.8985V22.9597V23.0212V23.0829V23.1448V23.2069V23.2693V23.3319V23.3947V23.4578V23.521V23.5845V23.6482V23.7121V23.7762V23.8405V23.905V23.9697V24.0346V24.0998V24.1651V24.2306V24.2963V24.3622V24.4283V24.4945V24.561V24.6276V24.6945V24.7614V24.8286V24.896V24.9635V25.0311V25.099V25.167V25.2352V25.3035V25.372V25.4407V25.5095V25.5784V25.6475V25.7168V25.7862V25.8557V25.9254V25.9952V26.0651V26.1352V26.2055V26.2758V26.3463V26.4169V26.4876V26.5585V26.6295V26.7005V26.7718V26.8431V26.9145V26.986V27.0577V27.1294V27.2013V27.2732V27.3453V27.4174V27.4897V27.562V27.6344V27.7069V27.7795V27.8522V27.925V27.9978V28.0707V28.1437V28.2167V28.2899V28.3631V28.4363V28.5097V28.5831V28.6565V28.73V28.8036V28.8772V28.9509V29.0246V29.0983V29.1721V29.246V29.3199V29.3938V29.4678V29.5418V29.6158V29.6898V29.7639V29.838V29.9122V29.9863V30.0605V30.1347V30.2089V30.2831V30.3573V30.4316V30.5058V30.5801V30.6543V30.7285V30.8028V30.877V30.9513V31.0255V31.0997V31.1739V31.2481V31.3222V31.3964V31.4705V31.5446V31.6187V31.6927V31.7667V31.8407V31.9147V31.9886V32.0624V32.1363V32.2101V32.2838V32.3575V32.4311V32.5047V32.5783V32.6517V32.7252V32.7985V32.8718V32.9451V33.0182V33.0913V33.1644V33.2373V33.3102V33.383V33.4557V33.5284V33.6009V33.6734V33.7458V33.8181V33.8903V33.9624V34.0344V34.1063V34.1781V34.2498V34.3214V34.3929V34.4642V34.5355V34.6067V34.6777V34.7486V34.8194V34.8901V34.9606V35.0311V35.1014V35.1715V35.2416V35.3115V35.3812V35.4508V35.5203V35.5896V35.6588V35.7279V35.7967V35.8655V35.9341V36.0025V36.0707V36.1388V36.2068V36.2746V36.3422V36.4096V36.4769V36.544V36.6109V36.6776V36.7442V36.8105V36.8767V36.9427V37.0085V37.0741V37.1396V37.2048V37.2698V37.3347V37.3993V37.4637V37.528V37.592V37.6558V37.7194V37.7827V37.8459V37.9088V37.9715V38.034V38.0963V38.1583V38.2202V38.2817V38.3431V38.4042V38.4651V38.5257V38.5861V38.6462V38.7061V38.7658V38.8252V38.8843V38.9432V39.0018V39.0602V39.1183V39.1761V39.2337V39.291V39.3481V39.4048V39.4613V39.5175V39.5735V39.6291V39.6845V39.7396V39.7944V39.8489V39.9031V39.957V40.0106V40.064V40.117V40.1697V40.2221V40.2742V40.3261V40.3775V40.4287V40.4796V40.5301V40.5804V40.6303V40.6798V40.7291V40.778V40.8266V40.8749V40.9228V40.9704V41.0176V41.0645V41.1111V41.1573V41.2032V41.2487V41.2939V41.3387V41.3832V41.4273V41.471V41.5144V41.5574V41.6V41.6423V41.6842V41.7258V41.7669V41.8077V41.8481V41.8881V41.9277V41.967V42.0059V42.0443V42.0824V42.1201V42.1574V42.1942V42.2307V42.2668V42.3025V42.3378V42.3726V42.4071V42.4411V42.4747V42.5079V42.5407V42.573V42.605V42.6365V42.6675V42.6982V42.7284V42.7582V42.7875V42.8164V42.8448V42.8728V42.9004V42.9275V42.9542V42.9804V43.0061V43.0314V43.0563V43.0807V43.1046V43.128V43.151V43.1735V43.1956V43.2171V43.2382V43.2588V43.279V43.2986V43.3178V43.3365V43.3546V43.3723V43.3895V43.4062V43.4224V43.4382V43.4534V43.4681V43.4823V43.496V43.5091V43.5218V43.5339V43.5456V43.5567V43.5673V43.5774V43.5869V43.5959V43.6044V43.6124V43.6198V43.6267V43.633V43.6388V43.6441V43.6488V43.653V43.6566V43.6597V43.6622V43.6641V43.6655V43.6664C40.375 43.6666 40.375 43.6667 40.5 43.6667H40.375C40.375 44.3366 39.8444 44.875 39.1956 44.875Z" stroke="#EEEEEE" stroke-width="0.25"/>
</g>
<path d="M19.4831 32.0058C19.0053 32.0058 18.5735 31.7563 18.2699 31.2855C17.8187 30.5869 17.9373 29.7956 18.5947 29.1144C19.2576 28.4273 20.6141 27.7808 22.2466 27.2529C22.7558 26.2896 23.2742 25.162 23.7586 23.9154C24.0447 23.1788 24.2757 22.5147 24.4608 21.9207C23.6449 20.4194 23.1598 19.0218 23.2887 18.1142C23.4199 17.1933 24.1051 16.6749 25.1237 16.7314C25.426 16.7478 26.1476 16.9062 26.3218 18.0213C26.4548 18.8739 26.2311 20.2522 25.7823 21.8184C26.6315 23.2562 27.7957 24.7962 28.9345 25.9781C30.6558 25.8728 32.1146 25.9987 32.8482 26.4431C33.4227 26.7909 33.6483 27.3582 33.4518 27.9601C33.13 28.9438 32.3528 29.3945 31.3706 29.1647C30.5439 28.971 29.5193 28.2465 28.4803 27.2407C26.8092 27.3883 24.8424 27.7297 23.1168 28.239C22.0868 30.0944 20.9734 31.5389 20.0384 31.8977C19.8497 31.9703 19.6634 32.0058 19.4831 32.0058V32.0058ZM19.309 30.61C19.4124 30.7696 19.4693 30.7663 19.4959 30.7632C19.8902 30.7229 20.547 30.0396 21.297 28.8847C20.801 29.0981 20.3565 29.3293 19.9827 29.5777C19.0453 30.2008 19.2443 30.5086 19.309 30.61V30.61ZM30.2197 27.1586C30.7489 27.5738 31.2407 27.8576 31.6519 27.9542C31.9731 28.0292 32.1382 27.9909 32.2748 27.5729C32.0922 27.2949 31.315 27.1613 30.2197 27.1586V27.1586ZM25.3008 23.3257C24.8974 24.4785 24.4039 25.6722 23.865 26.791C25.0256 26.4984 26.2491 26.268 27.4176 26.1217C26.6622 25.2625 25.9322 24.2973 25.3008 23.3257ZM25.0026 17.9492C24.5629 17.9492 24.54 18.1147 24.5145 18.2894C24.4498 18.7487 24.6107 19.4018 24.9282 20.1549C25.2083 18.813 25.1514 18.1031 25.0153 17.9492C25.0111 17.9492 25.0069 17.9492 25.0026 17.9492V17.9492Z" fill="#E35951"/>
<path d="M20.5 36.7353V40.6237H21.2961V39.4165H22.0474C22.8488 39.4165 23.405 38.8802 23.405 38.0799C23.405 37.2715 22.8699 36.7353 22.0869 36.7353H20.5ZM21.2961 37.4035H21.876C22.3347 37.4035 22.5957 37.6407 22.5957 38.0826C22.5957 38.5191 22.3295 38.7563 21.8734 38.7563H21.2961V37.4035Z" fill="#AFAFAF"/>
<path d="M24.2458 36.7326V40.6237H25.7431C26.8819 40.6237 27.5277 39.915 27.5277 38.6512C27.5277 37.4332 26.874 36.7326 25.7431 36.7326H24.2458ZM25.0419 37.4278H25.6166C26.3072 37.4278 26.7158 37.8778 26.7158 38.6646C26.7158 39.4865 26.3204 39.9285 25.6166 39.9285H25.0419V37.4278Z" fill="#AFAFAF"/>
<path d="M29.1831 40.6237V39.1093H30.7305V38.4437H29.1831V37.4305H30.8781V36.7353H28.387V40.6237H29.1831Z" fill="#AFAFAF"/>
<g filter="url(#filter1_ddd_3_2687)">
<path d="M29.3667 5.2787V16.375C29.3667 17.1136 29.9485 17.7084 30.6711 17.7084L40.499 17.7618C40.5306 16.3823 39.5846 15.4272 39.1621 14.9953L30.7454 6.37965C30.3348 5.84854 29.7331 5.34489 29.3795 5.27921L29.3667 5.2787Z" fill="white"/>
<path d="M39.0784 15.0884C39.4926 15.5119 40.3482 16.3865 40.3741 17.6361L30.6718 17.5834H30.6711C30.0201 17.5834 29.4917 17.0472 29.4917 16.375V5.44605C29.6228 5.50314 29.7858 5.60804 29.9621 5.75177C30.2006 5.94621 30.447 6.19803 30.6465 6.4561L30.6509 6.46182L30.656 6.467L39.0727 15.0827L39.0728 15.0827L39.0784 15.0884Z" stroke="#EEEEEE" stroke-width="0.25"/>
</g>
<defs>
<filter id="filter0_ddd_3_2687" x="0.500001" y="2.38419e-06" width="50" height="60" filterUnits="userSpaceOnUse" color-interpolation-filters="sRGB">
<feFlood flood-opacity="0" result="BackgroundImageFix"/>
<feColorMatrix in="SourceAlpha" type="matrix" values="0 0 0 0 0 0 0 0 0 0 0 0 0 0 0 0 0 0 127 0" result="hardAlpha"/>
<feOffset/>
<feGaussianBlur stdDeviation="0.625"/>
<feColorMatrix type="matrix" values="0 0 0 0 0 0 0 0 0 0 0 0 0 0 0 0 0 0 0.04 0"/>
<feBlend mode="normal" in2="BackgroundImageFix" result="effect1_dropShadow_3_2687"/>
<feColorMatrix in="SourceAlpha" type="matrix" values="0 0 0 0 0 0 0 0 0 0 0 0 0 0 0 0 0 0 127 0" result="hardAlpha"/>
<feOffset/>
<feGaussianBlur stdDeviation="1.25"/>
<feColorMatrix type="matrix" values="0 0 0 0 0 0 0 0 0 0 0 0 0 0 0 0 0 0 0.06 0"/>
<feBlend mode="normal" in2="effect1_dropShadow_3_2687" result="effect2_dropShadow_3_2687"/>
<feColorMatrix in="SourceAlpha" type="matrix" values="0 0 0 0 0 0 0 0 0 0 0 0 0 0 0 0 0 0 127 0" result="hardAlpha"/>
<feOffset dy="5"/>
<feGaussianBlur stdDeviation="5"/>
<feColorMatrix type="matrix" values="0 0 0 0 0 0 0 0 0 0 0 0 0 0 0 0 0 0 0.04 0"/>
<feBlend mode="normal" in2="effect2_dropShadow_3_2687" result="effect3_dropShadow_3_2687"/>
<feBlend mode="normal" in="SourceGraphic" in2="effect3_dropShadow_3_2687" result="shape"/>
</filter>
<filter id="filter1_ddd_3_2687" x="19.3667" y="0.278702" width="31.1328" height="32.4831" filterUnits="userSpaceOnUse" color-interpolation-filters="sRGB">
<feFlood flood-opacity="0" result="BackgroundImageFix"/>
<feColorMatrix in="SourceAlpha" type="matrix" values="0 0 0 0 0 0 0 0 0 0 0 0 0 0 0 0 0 0 127 0" result="hardAlpha"/>
<feOffset/>
<feGaussianBlur stdDeviation="0.625"/>
<feColorMatrix type="matrix" values="0 0 0 0 0 0 0 0 0 0 0 0 0 0 0 0 0 0 0.04 0"/>
<feBlend mode="normal" in2="BackgroundImageFix" result="effect1_dropShadow_3_2687"/>
<feColorMatrix in="SourceAlpha" type="matrix" values="0 0 0 0 0 0 0 0 0 0 0 0 0 0 0 0 0 0 127 0" result="hardAlpha"/>
<feOffset/>
<feGaussianBlur stdDeviation="1.25"/>
<feColorMatrix type="matrix" values="0 0 0 0 0 0 0 0 0 0 0 0 0 0 0 0 0 0 0.06 0"/>
<feBlend mode="normal" in2="effect1_dropShadow_3_2687" result="effect2_dropShadow_3_2687"/>
<feColorMatrix in="SourceAlpha" type="matrix" values="0 0 0 0 0 0 0 0 0 0 0 0 0 0 0 0 0 0 127 0" result="hardAlpha"/>
<feOffset dy="5"/>
<feGaussianBlur stdDeviation="5"/>
<feColorMatrix type="matrix" values="0 0 0 0 0 0 0 0 0 0 0 0 0 0 0 0 0 0 0.04 0"/>
<feBlend mode="normal" in2="effect2_dropShadow_3_2687" result="effect3_dropShadow_3_2687"/>
<feBlend mode="normal" in="SourceGraphic" in2="effect3_dropShadow_3_2687" result="shape"/>
</filter>
</defs>
</svg>
